<?xml version="1.0" encoding="utf-8"?>
<!-- Generator: Adobe Illustrator 22.0.1, SVG Export Plug-In . SVG Version: 6.00 Build 0)  -->
<svg version="1.1" id="レイヤー_1" xmlns="http://www.w3.org/2000/svg" xmlns:xlink="http://www.w3.org/1999/xlink" x="0px"
	 y="0px" viewBox="0 0 138 60" style="enable-background:new 0 0 138 60;" xml:space="preserve">
<style type="text/css">
	.st0{fill:#4343D1;}
	.st1{font-family:'KozGoPr6N-Regular-90ms-RKSJ-H';}
	.st2{font-size:15.7967px;}
	.st3{letter-spacing:3;}
</style>
<g>
	<path class="st0" d="M57.1,8.5c-5.3,1.9-9.3,5.3-11.1,8.3c1.8,3,5.9,6.5,11.2,8.3c1.3-2.4,2.1-5.2,2.1-8.2
		C59.4,13.8,58.5,10.9,57.1,8.5z M53.2,17.2c-0.8,0-1.4-0.7-1.4-1.6c0-0.9,0.6-1.6,1.4-1.6s1.4,0.7,1.4,1.6
		C54.6,16.5,54,17.2,53.2,17.2z"/>
	<path class="st0" d="M91.7,17c-0.1-0.3-0.1-0.7,0-1l1.3-4.5c0.2-0.7,0-1.4-0.5-1.8c-0.5-0.4-1.1-0.5-1.7-0.2L83.3,14
		c-3.7-3-7.4-4.9-10.9-5.9c-0.1-0.8-0.2-1.8-0.8-2.6c-0.9-1.2-6.3,0.6-9,1.7c-1.4,0.2-2.8,0.5-4.1,0.8c1.4,2.6,2.3,5.6,2.3,8.9
		c0,3.2-0.8,6.1-2.1,8.6c2,0.6,4.1,0.9,6.3,1c0.1,0.1,0.2,0.3,0.3,0.4l2.9,2.7c0.6,0.6,1.5,0.5,2.1-0.2l0.4-0.5
		c0.3-0.4,0.4-1,0.3-1.5c-0.1-0.5-0.4-1-0.9-1.2L70,26.2c4.4-0.8,9.1-2.9,13.8-6.9l7,4.2c0.5,0.3,1.2,0.2,1.7-0.2
		c0.5-0.4,0.6-1.2,0.5-1.8L91.7,17z"/>
</g>
<text transform="matrix(1 0 0 1 0 54.4629)"><tspan x="0" y="0" class="st0 st1 st2">アクア d</tspan><tspan x="60.6" y="0" class="st0 st1 st2 st3">e</tspan><tspan x="73.1" y="0" class="st0 st1 st2">ショップ</tspan></text>
</svg>
