<?xml version="1.0" encoding="utf-8"?>
<!-- Generator: Adobe Illustrator 22.0.1, SVG Export Plug-In . SVG Version: 6.00 Build 0)  -->
<svg version="1.1" id="_x32_" xmlns="http://www.w3.org/2000/svg" xmlns:xlink="http://www.w3.org/1999/xlink" x="0px" y="0px"
	 viewBox="0 0 512 512" style="enable-background:new 0 0 512 512;" xml:space="preserve">
<style type="text/css">
	.st0{fill:#FFFFFF;}
</style>
<g>
	<path class="st0" d="M407.6,0L384,91.8H13l69,239.5h240.1l-8.7,33.5H98.8v35.3h242L435,35.3h64V0H407.6z M287.2,296v-67.7h61.6
		L331.3,296H287.2z M374.8,127.1l-17,65.9h-70.7v-65.9C287.2,127.1,374.8,127.1,374.8,127.1z M251.8,228.3V296h-69.7v-67.7H251.8z
		 M251.8,127.1V193h-69.7v-65.9C182.2,127.1,251.8,127.1,251.8,127.1z M146.9,127.1V193H78.9l-19-65.9
		C59.9,127.1,146.9,127.1,146.9,127.1z M146.9,228.3V296h-38.3l-19.5-67.7H146.9z"/>
	<path class="st0" d="M132.6,415c-26.2,0-47.5,21.3-47.5,47.5s21.3,47.5,47.5,47.5s47.5-21.3,47.5-47.5S158.8,415,132.6,415z
		 M132.6,474.7c-6.7,0-12.2-5.5-12.2-12.2s5.5-12.2,12.2-12.2c6.7,0,12.2,5.5,12.2,12.2S139.3,474.7,132.6,474.7z"/>
	<path class="st0" d="M299.6,417c-26.2,0-47.5,21.3-47.5,47.5c0,26.2,21.3,47.5,47.5,47.5s47.5-21.3,47.5-47.5
		C347.1,438.3,325.8,417,299.6,417z M299.6,476.7c-6.7,0-12.2-5.5-12.2-12.2c0-6.7,5.5-12.2,12.2-12.2s12.2,5.5,12.2,12.2
		C311.8,471.2,306.3,476.7,299.6,476.7z"/>
</g>
</svg>
