<?xml version="1.0" encoding="utf-8"?>
<!-- Generator: Adobe Illustrator 22.0.1, SVG Export Plug-In . SVG Version: 6.00 Build 0)  -->
<svg version="1.1" id="_x32_" xmlns="http://www.w3.org/2000/svg" xmlns:xlink="http://www.w3.org/1999/xlink" x="0px" y="0px"
	 viewBox="0 0 512 512" style="enable-background:new 0 0 512 512;" xml:space="preserve">
<style type="text/css">
	.st0{fill:#B000AC;}
</style>
<g>
	<path class="st0" d="M164.9,89.8c13.9,0,25.1-11.2,25.1-25.1V25.1C190,11.3,178.8,0,164.9,0s-25.1,11.3-25.1,25.1v39.5
		C139.8,78.5,151,89.8,164.9,89.8z"/>
	<path class="st0" d="M350.2,89.8c13.9,0,25.1-11.2,25.1-25.1V25.1C375.3,11.3,364,0,350.2,0C336.3,0,325,11.3,325,25.1v39.5
		C325,78.5,336.3,89.8,350.2,89.8z"/>
	<path class="st0" d="M437.2,35.8h-39.9v28.8c0,26-21.2,47.2-47.2,47.2s-47.2-21.2-47.2-47.2V35.8H212v28.8
		c0,26-21.2,47.2-47.2,47.2s-47.2-21.2-47.2-47.2V35.8H74.7c-39,0-70.6,31.6-70.6,70.6v335c0,39,31.6,70.6,70.6,70.6h362.5
		c39,0,70.6-31.6,70.6-70.6v-335C507.8,67.4,476.2,35.8,437.2,35.8z M473.5,441.4c0,20-16.3,36.2-36.2,36.2H74.7
		c-20,0-36.2-16.3-36.2-36.2V151h435V441.4z"/>
	<rect x="174.9" y="382.5" class="st0" width="63.6" height="63.6"/>
	<rect x="174.9" y="284" class="st0" width="63.6" height="63.6"/>
	<rect x="76.4" y="382.5" class="st0" width="63.6" height="63.6"/>
	<rect x="76.4" y="284" class="st0" width="63.6" height="63.6"/>
	<rect x="372" y="185.4" class="st0" width="63.6" height="63.6"/>
	<rect x="273.5" y="185.4" class="st0" width="63.6" height="63.6"/>
	<rect x="372" y="284" class="st0" width="63.6" height="63.6"/>
	<rect x="273.5" y="382.5" class="st0" width="63.6" height="63.6"/>
	<rect x="174.9" y="185.4" class="st0" width="63.6" height="63.6"/>
	<g>
		<path class="st0" d="M338.3,316.9l5.8-14.9c0.1-0.3,0-0.7-0.3-0.9c-0.3-0.2-0.7-0.2-1,0l-15,11c-3.2-0.4-6.7-8.1-22-11.9l4.5-0.6
			c0.7-0.1,1.3-0.5,1.7-1.1c0.4-0.6,0.4-1.4,0.2-2l-2.3-6.2c-0.3-0.8-0.9-1.3-1.7-1.5c-0.8-0.2-1.6,0-2.2,0.6l-10.2,9.6
			c-16.6,0.4-29,13.7-29,18c0.6,3.6,7.4,11.8,17.7,15.7c1.1-1.5,1.9-3,2.6-4.3c2-4,2.6-7.5,2.6-9.9c0-1-0.1-1.8-0.2-2.3
			c-0.2-0.9,0.4-1.8,1.3-2s1.8,0.4,2,1.3c0.2,0.8,0.3,1.8,0.3,3c0,2.9-0.7,6.9-3,11.4c-0.6,1.3-1.4,2.6-2.3,3.9
			c3.5,1,7.4,1.4,11.5,1l3.1,6c0.3,0.6,0.9,1,1.5,1.2c0.7,0.2,1.4,0.1,1.9-0.3l2.3-1.5c0.6-0.4,1-1.1,1.1-1.9c0-0.8-0.3-1.5-0.9-2
			l-3.1-2.5c15.8-3.8,19.3-11.6,22.6-12l15,11c0.3,0.2,0.7,0.2,1,0s0.4-0.6,0.3-0.9L338.3,316.9z M278.4,318.1
			c-1.4,0-2.5-1.1-2.5-2.5s1.1-2.5,2.5-2.5s2.5,1.1,2.5,2.5C280.9,316.9,279.8,318.1,278.4,318.1z"/>
	</g>
</g>
</svg>
