<?xml version="1.0" encoding="utf-8"?>
<!-- Generator: Adobe Illustrator 22.0.1, SVG Export Plug-In . SVG Version: 6.00 Build 0)  -->
<svg version="1.1" id="_x32_" xmlns="http://www.w3.org/2000/svg" xmlns:xlink="http://www.w3.org/1999/xlink" x="0px" y="0px"
	 viewBox="0 0 514 494.4" style="enable-background:new 0 0 514 494.4;" xml:space="preserve">
<style type="text/css">
	.st0{fill:#FF9C00;}
</style>
<g>
	<path class="st0" d="M473.5,328.1l38.2-98.6c0.8-2.2,0.1-4.7-1.7-6.1c-1.9-1.4-4.5-1.5-6.3-0.1l-99.1,73.1
		c-21.3-2.5-44.4-53.5-145.9-78.7l29.7-4.2c4.7-0.7,8.9-3.4,11.4-7.5s2.9-9.1,1.3-13.6l-14.9-41c-1.8-5-6-8.8-11.2-10
		s-10.6,0.2-14.5,3.9l-67.9,63.9C82.4,211.5,0,299.9,0,328.1c3.7,23.6,48.9,77.9,117.3,104.3c7.1-10,12.9-19.6,17.5-28.8
		c13.5-26.8,17.2-49.9,17.2-65.7c0-6.4-0.6-11.6-1.4-15.3c-1.3-6,2.6-12,8.6-13.3s12,2.6,13.3,8.6c1.2,5.5,1.9,12.1,1.9,19.9
		c0,19.3-4.6,45.8-19.6,75.8c-4.2,8.4-9.3,17.1-15.3,26c23.5,6.4,49.2,9.3,76.5,6.7l20.3,39.5c2,4,5.7,6.9,10,8.1
		c4.3,1.1,9,0.4,12.8-2.1l15.5-10.1c4.3-2.8,6.9-7.4,7.2-12.5c0.2-5.1-1.9-10-5.9-13.1L255,439.4c104.6-24.9,128-77.1,149.5-79.6
		l99.1,73.1c1.9,1.4,4.5,1.4,6.3,0c1.9-1.4,2.6-3.9,1.7-6.1L473.5,328.1z M76.4,335.6c-9.3,0-16.8-7.5-16.8-16.8S67.1,302,76.4,302
		s16.8,7.5,16.8,16.8C93.2,328,85.7,335.6,76.4,335.6z"/>
</g>
<g>
	<path class="st0" d="M396.5-2.3V98.6c-4.7-0.7-9.8-0.5-14.8,1.1c-15.2,4.8-24.2,19-20.1,31.9c4,12.8,19.6,19.4,34.8,14.6
		c11.6-3.7,20.6-12.9,21.9-22.8V36.2l72,13.8v66.5c-4.6-0.7-9.6-0.4-14.5,1.1c-15.2,4.8-24.2,19.1-20.1,31.9
		c4,12.8,19.6,19.4,34.8,14.6c12.1-3.8,20.8-13.6,21.6-23.9V17.6L396.5-2.3z"/>
</g>
</svg>
