<?xml version="1.0" encoding="utf-8"?>
<!-- Generator: Adobe Illustrator 22.0.1, SVG Export Plug-In . SVG Version: 6.00 Build 0)  -->
<svg version="1.1" id="ptn1" xmlns="http://www.w3.org/2000/svg" xmlns:xlink="http://www.w3.org/1999/xlink" x="0px" y="0px"
	 viewBox="0 0 192 192" style="enable-background:new 0 0 192 192;" xml:space="preserve">
<style type="text/css">
	.st0{fill:#E90000;}
</style>
<g id="txt">
	<g id="icon_10897" transform="translate(0,0)">
		<g>
			<path class="st0" d="M176.8,104.8L53.7,26.7L18.2,148.9l59.7,0.1l0.1,9.2c0.1,6.7,4.6,12.4,10.8,14.2c1.4,0.4,2.9,0.6,4.4,0.6
				l30.1-0.4c6.8-0.1,12.4-4.6,14.2-10.8c0.4-1.4,0.6-2.9,0.6-4.4l-0.1-8.4l26.1,0L176.8,104.8z M68.2,62c-2.4-1.4-3.2-4.6-1.7-7
				c1.4-2.4,4.6-3.2,7-1.7L130,87.8c2.4,1.4,3.2,4.6,1.7,7c-1.5,2.4-4.6,3.2-7,1.7L68.2,62z M129.1,157.5c0,0.6-0.1,1.2-0.2,1.8
				c-0.7,2.5-3,4.3-5.8,4.4L93,164.1c-0.6,0-1.2-0.1-1.8-0.2c-2.5-0.7-4.3-3-4.4-5.8l-0.1-9.1l42.3,0L129.1,157.5l4.4-0.1
				L129.1,157.5z"/>
			<path class="st0" d="M42.2,19.3c-3.3-1-6.7,0.9-7.7,4.2L0.2,141.4c-1,3.3,0.9,6.7,4.2,7.7c3.3,1,6.7-0.9,7.7-4.2L46.4,26.9
				C47.4,23.7,45.5,20.2,42.2,19.3z"/>
			<path class="st0" d="M187.9,108.7c-3-0.9-6.2,0.9-7.1,3.9l-9.3,32.1c-0.9,3,0.9,6.2,3.9,7.1c3,0.9,6.2-0.9,7.1-3.9l9.3-32.1
				C192.6,112.7,190.9,109.6,187.9,108.7z"/>
		</g>
	</g>
</g>
</svg>
