<?xml version="1.0" encoding="utf-8"?>
<!-- Generator: Adobe Illustrator 22.0.1, SVG Export Plug-In . SVG Version: 6.00 Build 0)  -->
<svg version="1.1" id="_x32_" xmlns="http://www.w3.org/2000/svg" xmlns:xlink="http://www.w3.org/1999/xlink" x="0px" y="0px"
	 viewBox="0 0 512 512" style="enable-background:new 0 0 512 512;" xml:space="preserve">
<style type="text/css">
	.st0{fill:#0001F1;}
</style>
<g>
	<path class="st0" d="M454.4,78.5C468.2,63.6,470,49.4,466,38.9c-1.9-14.8-21.8-23.6-27.7-23.6c-10.4,0.1-18.7,3.5-26.8,6.1
		c-8.2,2.7-16.3,4.9-27,5c-6.5,0-10.5-1.2-14.1-3c-5.4-2.5-10.1-7.4-17.6-12.9c-3.7-2.7-8.2-5.4-13.7-7.4c-5.4-2-11.8-3.1-18.9-3.1
		c-9.6,0-17.6,2.1-24.1,5.3c-9.7,4.9-15.5,11.2-20.8,14.9c-2.7,1.9-5.1,3.4-8.1,4.4c-2.9,1-6.4,1.8-11.3,1.8c-6.5,0-10.5-1.2-14.1-3
		c-5.3-2.5-10.1-7.4-17.6-12.9c-3.7-2.7-8.2-5.4-13.7-7.4c-5.4-2-11.8-3.1-18.9-3.1c-9.6,0-17.6,2.1-24.1,5.3
		c-9.7,4.9-15.5,11.2-20.8,14.9c-2.7,1.9-5.1,3.4-8.1,4.4c-2.9,1-6.4,1.8-11.3,1.8c-10.7,0-18.8-2.3-27-5c-8.1-2.6-16.4-6-26.8-6.1
		c-6.1,0-25.9,6.6-28.5,25.8c-3,10.3-0.5,23.5,12.3,37.4c30.4,33,86.7,39.3,51.3,82.8c-35.4,43.4-59.5,95.9-59.5,145.6
		C49.4,420.2,142.7,512,256,512c113.3,0,206.7-91.8,206.7-205.1c0-49.7-24.1-102.1-59.5-145.6C367.7,117.8,424,111.5,454.4,78.5z
		 M256,489.4c-101.5,0-184.1-81.9-184.1-182.5c0-41,19.8-88.9,54.5-131.3c13-16,18.2-30.8,15.9-45.4c-3.5-22.1-22.1-34.1-40.2-45.7
		c-10-6.5-20.4-13.1-27.9-21.3c-5.3-5.8-8.1-11.5-7.4-15.3c0.4-2,1.7-3.2,2.8-3.8c2-1,3.2-1.1,4.1-1.1c3,0,7.7,1.6,13.1,3.4
		c9.8,3.2,23.1,7.7,40.6,7.7c24.1,0,37.6-11,46.4-18.3c7-5.7,9.8-8.1,17.8-8.1c8,0,10.9,2.4,17.8,8C218.5,43,231.9,54,256,54
		s37.6-11,46.4-18.3c6.9-5.7,9.8-8,17.8-8c8,0,10.9,2.4,17.8,8.1C347,43,360.4,54,384.5,54c17.5,0,30.9-4.4,40.6-7.7
		c5.4-1.8,10.1-3.4,13.1-3.4c1,0,2.1,0.1,4.1,1.1c1.1,0.6,2.4,1.8,2.8,3.8c0.7,3.8-2.1,9.5-7.4,15.3c-7.5,8.1-17.9,14.8-27.9,21.3
		c-18,11.6-36.6,23.5-40.2,45.7c-2.3,14.6,2.9,29.5,15.9,45.4c34.6,42.5,54.5,90.3,54.5,131.3C440.1,407.5,357.5,489.4,256,489.4z"
		/>
	<path class="st0" d="M100.2,306.9c0,85.1,69.9,154.3,155.8,154.3c85.9,0,155.9-69.2,155.9-154.3c0-22.8-7.7-48.5-21.7-74.1H121.8
		C107.9,258.4,100.2,284.1,100.2,306.9z M203.8,331.6l17.6-13.6c1-0.8,2-1.4,3-2.1h-0.1l34.8-25.2c2.5-1.9,5.9-2.1,8.6-0.4
		c2.7,1.7,4,4.9,3.4,7.9l-3.4,16.3c1.9,1,3.7,2.2,5.4,3.5l15.7,12.1l50.2-37.7c2.3-1.7,5.4-1.7,7.7,0.1c2.2,1.8,3,4.8,1.9,7.4
		l-20.1,46.2l10.9,23.7c1.1,2.3,0.6,5.1-1.2,7c-1.8,1.9-4.6,2.4-7,1.4l-45.8-19.4l-12.3,9.5c-8.5,6.6-18.9,9.5-29.1,8.7
		c3.7,1.2,8.1,2.5,12.1,3.7c13.3,4.1,5.9,20.7-4.4,17c-8.8-3.1-14.9-18-16.5-22.4c-4.9-1.4-9.5-3.7-13.7-7l-17.6-13.6
		c-3.6-2.8-5.7-7-5.7-11.6C198.1,338.7,200.2,334.4,203.8,331.6z"/>
</g>
</svg>
